<svg
  xmlns="http://www.w3.org/2000/svg"
  width="1200"
  height="630"
  viewBox="0 0 1200 630"
>
  <defs>
    <radialGradient id="blue-glow" cx="50%" cy="50%" r="50%">
      <stop offset="0" stop-color="#2563eb" stop-opacity="0.72" />
      <stop offset="1" stop-color="#2563eb" stop-opacity="0" />
    </radialGradient>
    <radialGradient id="green-glow" cx="50%" cy="50%" r="50%">
      <stop offset="0" stop-color="#15803d" stop-opacity="0.62" />
      <stop offset="1" stop-color="#15803d" stop-opacity="0" />
    </radialGradient>
    <clipPath id="canvas">
      <rect width="1200" height="630" rx="0" />
    </clipPath>
  </defs>

  <g clip-path="url(#canvas)">
    <rect width="1200" height="630" fill="#181818" />
    <circle cx="1030" cy="105" r="340" fill="url(#blue-glow)" />
    <circle cx="905" cy="575" r="310" fill="url(#green-glow)" />

    <g transform="translate(72 66)">
      <rect width="72" height="72" rx="16" fill="#282828" />
      <path
        d="M47 22a20 20 0 1 0 0 28"
        fill="none"
        stroke="#ffffff"
        stroke-linecap="round"
        stroke-width="8"
      />
      <path
        d="m43 29 8 7-8 7"
        fill="none"
        stroke="#3b82f6"
        stroke-linecap="round"
        stroke-linejoin="round"
        stroke-width="6"
      />
    </g>

    <text
      x="72"
      y="250"
      fill="#ffffff"
      font-family="Inter, Arial, Helvetica, sans-serif"
      font-size="76"
      font-weight="800"
      letter-spacing="-2"
    >
      Chrisando E.
    </text>
    <text
      x="72"
      y="337"
      fill="#ffffff"
      font-family="Inter, Arial, Helvetica, sans-serif"
      font-size="76"
      font-weight="800"
      letter-spacing="-2"
    >
      Pramudhita
    </text>
    <text
      x="76"
      y="406"
      fill="#bbbbbb"
      font-family="Inter, Arial, Helvetica, sans-serif"
      font-size="28"
      font-weight="500"
    >
      chrsep.dev
    </text>

    <path
      d="M740 160c72-88 214-101 302-29 89 72 102 212 30 301-72 88-213 102-302 30"
      fill="none"
      stroke="#ffffff"
      stroke-linecap="round"
      stroke-width="34"
    />
    <path
      d="m1007 231 72 74-72 74"
      fill="none"
      stroke="#3b82f6"
      stroke-linecap="round"
      stroke-linejoin="round"
      stroke-width="30"
    />
    <circle cx="790" cy="500" r="12" fill="#22c55e" />
    <path d="M72 526h486" stroke="#343434" stroke-width="2" />
    <circle cx="76" cy="565" r="6" fill="#3b82f6" />
    <circle cx="101" cy="565" r="6" fill="#22c55e" />
    <circle cx="126" cy="565" r="6" fill="#ffffff" fill-opacity="0.34" />
  </g>
</svg>
